<?xml version="1.0" standalone="no"?>
<!DOCTYPE svg PUBLIC "-//W3C//DTD SVG 1.1//EN" "http://www.w3.org/Graphics/SVG/1.1/DTD/svg11.dtd" >
<svg xmlns="http://www.w3.org/2000/svg" xmlns:xlink="http://www.w3.org/1999/xlink" version="1.1">
<metadata></metadata>
<defs>
<font id="founders_grotesklight" horiz-adv-x="978" >
<font-face units-per-em="2048" ascent="1290" descent="-758" />
<missing-glyph horiz-adv-x="368" />
<glyph unicode="&#xfb01;" horiz-adv-x="929" d="M20 797v92h138v80q0 160 83.5 253t237.5 93q124 0 197.5 -53t109.5 -162l-106 -39q-21 69 -73 111t-128 42q-92 0 -144 -58t-52 -169v-98h524v-889h-125v797h-399v-797h-125v797h-138z" />
<glyph unicode="&#xfb02;" horiz-adv-x="929" d="M20 797v92h138v135q0 133 72.5 212t197.5 79q99 0 176 -53l-41 -86q-55 43 -127 43q-153 0 -153 -195v-135h256v-92h-256v-797h-125v797h-138zM682 0v1290h125v-1290h-125z" />
<glyph unicode="&#xfb03;" horiz-adv-x="1454" d="M20 797v92h138v115q0 131 76.5 210.5t197.5 79.5q115 0 209 -65l-41 -86q-74 55 -160 55q-78 0 -117.5 -50.5t-39.5 -143.5v-115h399v80q0 160 84 253t238 93q124 0 197.5 -53t109.5 -162l-107 -39q-21 69 -72.5 111t-127.5 42q-92 0 -144.5 -58t-52.5 -169v-98h524v-889 h-125v797h-399v-797h-125v797h-399v-797h-125v797h-138z" />
<glyph unicode="&#xfb04;" horiz-adv-x="1454" d="M20 797v92h138v115q0 131 76.5 210.5t197.5 79.5q115 0 209 -65l-41 -86q-74 55 -160 55q-78 0 -117.5 -50.5t-39.5 -143.5v-115h399v135q0 133 72.5 212t197.5 79q99 0 176 -53l-41 -86q-55 43 -126 43q-78 0 -116 -51t-38 -144v-135h256v-92h-256v-797h-125v797h-399 v-797h-125v797h-138zM1206 0v1290h125v-1290h-125z" />
<glyph horiz-adv-x="0" />
<glyph horiz-adv-x="682" />
<glyph unicode=" "  horiz-adv-x="368" />
<glyph unicode="&#x09;" horiz-adv-x="368" />
<glyph unicode="&#xa0;" horiz-adv-x="368" />
<glyph unicode="!" horiz-adv-x="368" d="M102 0v164h164v-164h-164zM117 922v368h135v-368l-45 -611h-45z" />
<glyph unicode="&#x22;" horiz-adv-x="546" d="M102 854v436h113v-436h-113zM332 854v436h112v-436h-112z" />
<glyph unicode="#" horiz-adv-x="1241" d="M41 342l16 96h230l98 416h-256l16 96h263l81 340h115l-82 -340h340l82 340h115l-82 -340h223l-16 -96h-230l-98 -416h256l-16 -96h-262l-82 -342h-115l82 342h-340l-82 -342h-115l82 342h-223zM401 438h340l99 416h-340z" />
<glyph unicode="$" horiz-adv-x="1103" d="M45 463l115 10q6 -169 99 -271.5t245 -121.5v516l-113 22q-142 29 -224.5 113.5t-82.5 224.5q0 160 112.5 258t307.5 101v184h100v-190q190 -25 296 -144t106 -313l-117 -10q-3 151 -77.5 245t-207.5 119v-510l86 -16q174 -35 258 -113t84 -227q0 -161 -119 -258 t-309 -105v-188h-100v191q-206 18 -332.5 144.5t-126.5 338.5zM205 961q0 -104 64 -157t198 -79l37 -8v497q-146 -3 -222.5 -68.5t-76.5 -184.5zM604 76q138 8 220.5 75t82.5 179q0 98 -60.5 153.5t-197.5 83.5l-45 8v-499z" />
<glyph unicode="%" horiz-adv-x="1464" d="M61 981q0 153 82.5 243.5t210.5 90.5t210.5 -90.5t82.5 -243.5t-82.5 -243.5t-210.5 -90.5t-210.5 90.5t-82.5 243.5zM186 981q0 -124 44.5 -183t123.5 -59t123.5 59t44.5 183t-44.5 183t-123.5 59t-123.5 -59t-44.5 -183zM348 0l656 1290h112l-655 -1290h-113zM817 309 q0 153 82.5 243.5t210.5 90.5t210.5 -90.5t82.5 -243.5t-82.5 -243.5t-210.5 -90.5t-210.5 90.5t-82.5 243.5zM942 309q0 -124 44.5 -182.5t123.5 -58.5t123.5 58.5t44.5 182.5t-44.5 183t-123.5 59t-123.5 -59t-44.5 -183z" />
<glyph unicode="&#x26;" horiz-adv-x="1243" d="M61 326q0 87 37.5 158.5t96 121t149.5 99.5q-67 81 -102 151.5t-35 151.5q0 135 87.5 221t231.5 86q141 0 219 -77.5t78 -203.5q0 -77 -38.5 -141t-101 -110t-163.5 -97l344 -401v-2q123 147 168 366l107 -8q-61 -255 -209 -432q57 -62 105 -91.5t108 -29.5q61 0 100 10 v-86q-55 -28 -121 -28q-72 0 -132 33t-136 112q-175 -154 -389 -154q-173 0 -288.5 96t-115.5 255zM188 328q0 -111 78.5 -179.5t198.5 -68.5q179 0 321 123l-30 35l-348 393q-113 -59 -166.5 -126t-53.5 -177zM324 1008q0 -35 9.5 -67t31.5 -65.5t39 -55t51 -60.5 q145 68 200.5 125.5t55.5 150.5q0 75 -47.5 129t-137.5 54q-88 0 -145 -55t-57 -156z" />
<glyph unicode="'" horiz-adv-x="317" d="M102 854v436h113v-436h-113z" />
<glyph unicode="(" horiz-adv-x="559" d="M82 590q0 211 74 412.5t209 349.5h133q-151 -173 -214 -361.5t-63 -400.5t63 -400.5t214 -361.5h-133q-135 148 -209 349.5t-74 412.5z" />
<glyph unicode=")" horiz-adv-x="559" d="M61 -172q151 173 214 361.5t63 400.5t-63 400.5t-214 361.5h134q135 -148 208.5 -349t73.5 -413t-73.5 -413t-208.5 -349h-134z" />
<glyph unicode="*" horiz-adv-x="722" d="M31 1038l32 90l250 -86v273h97v-273l254 91l28 -93l-256 -79l162 -218l-80 -55l-156 215l-155 -219l-76 59l158 213z" />
<glyph unicode="+" horiz-adv-x="1269" d="M117 586v106h465v467h106v-467h465v-106h-465v-465h-106v465h-465z" />
<glyph unicode="," horiz-adv-x="327" d="M82 0v164h164v-166q0 -54 -5 -87t-21.5 -63t-50 -43.5t-87.5 -13.5v84q52 4 66 28.5t14 96.5h-80z" />
<glyph unicode="-" horiz-adv-x="696" d="M123 465v113h450v-113h-450z" />
<glyph unicode="." horiz-adv-x="327" d="M82 0v164h164v-164h-164z" />
<glyph unicode="/" horiz-adv-x="620" d="M-41 -170l533 1520h120l-532 -1520h-121z" />
<glyph unicode="0" horiz-adv-x="1187" d="M72 645q0 321 136 495.5t386 174.5t386 -174.5t136 -495.5t-136 -495.5t-386 -174.5t-386 174.5t-136 495.5zM207 645q0 -565 387 -565t387 565t-387 565t-387 -565z" />
<glyph unicode="1" horiz-adv-x="555" d="M20 1022v82q131 0 196.5 45.5t102.5 150.5h72v-1300h-129v1022h-242z" />
<glyph unicode="2" horiz-adv-x="1024" d="M55 0v61l367 324q54 47 76 67t68.5 62.5t67 66t54 62t49 67t33 65t24.5 72t7 73.5q0 132 -75 211t-214 79q-147 0 -228 -86.5t-81 -244.5q0 -61 14 -121l-131 8q-12 62 -12 121q0 196 118.5 312t319.5 116q108 0 191 -30.5t133 -84.5t75 -123t25 -151q0 -68 -26.5 -138.5 t-62.5 -126t-96.5 -120t-106 -105.5t-112.5 -98l-266 -223h723v-115h-934z" />
<glyph unicode="3" horiz-adv-x="1042" d="M49 434l127 -8q4 -168 100 -257t261 -89q148 0 234.5 70t86.5 198q0 118 -88 185t-227 67q-69 0 -131 -8v117q54 -7 131 -7q60 0 110 12.5t92 39.5t65.5 76.5t23.5 117.5q0 119 -78.5 190.5t-225.5 71.5q-153 0 -241 -93t-88 -263l-127 6q0 202 124 328.5t332 126.5 q205 0 319 -98t114 -261q0 -120 -76.5 -204.5t-177.5 -100.5q119 -15 198.5 -101t79.5 -212q0 -159 -122.5 -261t-329.5 -102q-225 0 -355.5 122.5t-130.5 336.5z" />
<glyph unicode="4" horiz-adv-x="1095" d="M33 365v124l657 801h160v-821h235v-104h-235v-365h-127v365h-690zM145 469h578v702z" />
<glyph unicode="5" horiz-adv-x="1073" d="M84 459l129 -13q-2 -169 86 -268.5t256 -99.5q153 0 239.5 93.5t86.5 252.5q0 144 -88.5 235t-237.5 91q-112 0 -193.5 -53t-123.5 -134l-132 8q27 148 52.5 359t29.5 360h740v-121h-637q-2 -58 -21.5 -234t-31.5 -228q51 67 136.5 109t194.5 42q209 0 326 -124t117 -308 q0 -198 -127 -324.5t-334 -126.5q-226 0 -352 133.5t-115 350.5z" />
<glyph unicode="6" horiz-adv-x="1114" d="M72 614q0 155 32 282t95 221t164.5 146t232.5 52q188 0 306.5 -103.5t133.5 -281.5l-125 -6q-46 288 -315 288q-108 0 -189 -48t-130 -136t-71.5 -205t-19.5 -262q33 135 138.5 220t271.5 85q207 0 331 -123t124 -319q0 -200 -125 -324.5t-338 -124.5q-249 0 -382.5 171 t-133.5 468zM236 420q0 -153 95 -245.5t257 -92.5q157 0 246.5 92t89.5 246q0 155 -90.5 245.5t-253.5 90.5t-253.5 -90.5t-90.5 -245.5z" />
<glyph unicode="7" horiz-adv-x="970" d="M41 1171v119h889v-63q-154 -163 -256.5 -367.5t-148.5 -416.5t-48 -443h-139q4 344 123.5 655t316.5 516h-737z" />
<glyph unicode="8" horiz-adv-x="1060" d="M55 340q0 121 80.5 204t192.5 103q-105 36 -165.5 116.5t-60.5 192.5q0 164 120.5 261.5t307.5 97.5t307.5 -97.5t120.5 -261.5q0 -112 -60 -192.5t-165 -116.5q112 -20 192.5 -103t80.5 -204q0 -168 -128 -266.5t-348 -98.5t-347.5 98.5t-127.5 266.5zM193 338 q0 -125 87.5 -194.5t249.5 -69.5t250 69.5t88 194.5t-87 189.5t-251 64.5t-250.5 -64.5t-86.5 -189.5zM231 950q0 -121 82 -188.5t217 -67.5t217 67.5t82 188.5q0 130 -81.5 198.5t-217.5 68.5t-217.5 -68.5t-81.5 -198.5z" />
<glyph unicode="9" horiz-adv-x="1114" d="M63 866q0 200 125 324.5t338 124.5q249 0 382.5 -171t133.5 -468q0 -155 -32 -282t-95 -221t-164.5 -146t-232.5 -52q-188 0 -306.5 103.5t-133.5 281.5l125 7q21 -135 98 -212t217 -77q108 0 189 48t130 136t71.5 205t19.5 262q-33 -135 -138.5 -220t-271.5 -85 q-207 0 -331 123t-124 319zM190 870q0 -155 91 -245t254 -90t253.5 90t90.5 245q0 153 -95.5 245.5t-257.5 92.5q-157 0 -246.5 -92t-89.5 -246z" />
<glyph unicode=":" horiz-adv-x="327" d="M82 0v164h164v-164h-164zM82 678v164h164v-164h-164z" />
<glyph unicode=";" horiz-adv-x="327" d="M82 0v164h164v-166q0 -54 -5 -87t-21.5 -63t-50 -43.5t-87.5 -13.5v84q52 4 66 28.5t14 96.5h-80zM82 678v164h164v-164h-164z" />
<glyph unicode="&#x3c;" horiz-adv-x="942" d="M88 571v129l791 449v-125l-695 -389l695 -387v-127z" />
<glyph unicode="=" horiz-adv-x="1292" d="M127 432v109h1038v-109h-1038zM127 729v109h1038v-109h-1038z" />
<glyph unicode="&#x3e;" horiz-adv-x="942" d="M63 121v127l693 387l-693 389v125l791 -449v-129z" />
<glyph unicode="?" d="M61 887q0 196 119 312t320 116q108 0 190 -30.5t131 -83.5t73 -120t24 -145q0 -53 -16 -102.5t-39 -87t-64.5 -81.5t-75.5 -73t-90 -74q-61 -50 -84 -92t-23 -107h-116q0 92 34.5 156t120.5 133q7 6 33 27t35 28.5t32 28t32.5 32.5t26.5 32.5t24.5 38.5t17 41t13 48 t3.5 52q0 122 -72.5 198t-209.5 76q-147 0 -228.5 -86.5t-81.5 -244.5q0 -57 15 -121l-131 8q-13 67 -13 121zM379 0v164h164v-164h-164z" />
<glyph unicode="@" horiz-adv-x="1546" d="M72 395q0 162 55 303t154 243.5t244 161t317 58.5q149 0 271 -45t203 -125t125 -190t44 -240q0 -98 -20 -179.5t-54.5 -138.5t-81.5 -96.5t-100.5 -58t-112.5 -18.5q-79 0 -127 41.5t-61 107.5q-38 -68 -107 -108.5t-155 -40.5q-120 0 -191.5 76t-71.5 208q0 81 26.5 160 t74.5 144t123 105t164 40q84 0 145.5 -37.5t83.5 -97.5l33 118h121l-125 -493q-17 -67 4 -95t77 -28q107 0 175.5 98.5t68.5 292.5q0 223 -143 363.5t-389 140.5q-195 0 -346.5 -86.5t-233.5 -240t-82 -347.5q0 -132 47.5 -242t130 -184t193 -114.5t235.5 -40.5 q234 0 422 92l43 -72q-195 -117 -467 -117q-149 0 -278 45.5t-226 130.5t-152.5 215.5t-55.5 290.5zM535 352q0 -91 37.5 -134.5t115.5 -43.5q86 0 160.5 62t105.5 176l15 53q26 105 -22.5 174.5t-145.5 69.5q-118 0 -192 -109t-74 -248z" />
<glyph unicode="A" horiz-adv-x="1275" d="M31 0l530 1290h139l545 -1290h-137l-174 416h-610l-166 -416h-127zM369 524h520l-260 627h-8z" />
<glyph unicode="B" horiz-adv-x="1185" d="M133 0v1290h498q227 0 333.5 -90.5t106.5 -249.5q0 -111 -70 -186t-178 -94q128 -21 206.5 -102t78.5 -214q0 -169 -118.5 -261.5t-342.5 -92.5h-514zM258 109h399q158 0 242 65.5t84 185.5q0 122 -84.5 189t-241.5 67h-399v-507zM258 721h393q293 0 293 229 q0 109 -72.5 170.5t-220.5 61.5h-393v-461z" />
<glyph unicode="C" horiz-adv-x="1361" d="M72 645q0 195 83 348.5t225.5 237.5t317.5 84q265 0 419.5 -150t172.5 -405l-125 -6q-9 201 -133.5 326.5t-333.5 125.5q-216 0 -353.5 -152.5t-137.5 -408.5t137.5 -408.5t353.5 -152.5q209 0 333.5 125.5t133.5 327.5l125 -7q-18 -255 -172.5 -405t-419.5 -150 q-175 0 -317.5 84t-225.5 237.5t-83 348.5z" />
<glyph unicode="D" horiz-adv-x="1310" d="M133 0v1290h455q301 0 476 -172t175 -473t-175 -473t-476 -172h-455zM262 109h320q253 0 387.5 141t134.5 395q0 255 -134.5 396t-387.5 141h-320v-1073z" />
<glyph unicode="E" horiz-adv-x="1107" d="M133 0v1290h875v-108h-750v-459h600v-109h-600v-505h768v-109h-893z" />
<glyph unicode="F" horiz-adv-x="1038" d="M133 0v1290h854v-108h-727v-480h578v-108h-578v-594h-127z" />
<glyph unicode="G" horiz-adv-x="1402" d="M72 645q0 195 82 348.5t223.5 237.5t316.5 84q267 0 420 -141t170 -394l-125 -8q-9 199 -131.5 316.5t-333.5 117.5q-215 0 -351 -153.5t-136 -409.5t138.5 -407.5t361.5 -151.5q205 0 327 120t133 314h-422v109h537v-627h-121v254q-39 -129 -168.5 -204t-292.5 -75 q-136 0 -252 48.5t-199 135.5t-130 212.5t-47 273.5z" />
<glyph unicode="H" horiz-adv-x="1331" d="M133 0v1290h129v-567h807v567h129v-1290h-129v614h-807v-614h-129z" />
<glyph unicode="I" horiz-adv-x="395" d="M133 0v1290h129v-1290h-129z" />
<glyph unicode="J" horiz-adv-x="1013" d="M27 426l120 10q12 -169 95.5 -262.5t232.5 -93.5q297 0 297 348v862h129v-858q0 -221 -114.5 -339t-315.5 -118q-196 0 -315 116.5t-129 334.5z" />
<glyph unicode="K" horiz-adv-x="1163" d="M133 0v1290h129v-669l672 669h158l-572 -571l643 -719h-159l-580 639l-162 -160v-479h-129z" />
<glyph unicode="L" horiz-adv-x="1054" d="M133 0v1290h129v-1181h742v-109h-871z" />
<glyph unicode="M" horiz-adv-x="1497" d="M133 0v1290h213l412 -1116h6l389 1116h211v-1290h-131v1167h-8l-418 -1167h-109l-434 1167h-8v-1167h-123z" />
<glyph unicode="N" horiz-adv-x="1294" d="M133 0v1290h143l762 -1063v1063h123v-1290h-102l-803 1112v-1112h-123z" />
<glyph unicode="O" horiz-adv-x="1409" d="M72 645q0 298 175.5 484t457.5 186t457 -186t175 -484t-175 -484t-457 -186t-457.5 186t-175.5 484zM207 645q0 -256 135.5 -408.5t362.5 -152.5t362 152t135 409t-135 409t-362 152t-362.5 -152.5t-135.5 -408.5z" />
<glyph unicode="P" horiz-adv-x="1118" d="M133 0v1290h440q235 0 364.5 -104.5t129.5 -288.5t-129.5 -288.5t-364.5 -104.5h-313v-504h-127zM260 612h313q181 0 274 73.5t93 211.5t-93 211.5t-274 73.5h-313v-570z" />
<glyph unicode="Q" horiz-adv-x="1409" d="M72 645q0 298 175.5 484t457.5 186t457 -186t175 -484q0 -281 -159 -467l131 -143l-80 -72l-131 139q-161 -127 -393 -127q-282 0 -457.5 186t-175.5 484zM207 645q0 -256 135.5 -408.5t362.5 -152.5q191 0 315 100l-152 164l84 74l144 -158q106 142 106 381 q0 257 -135 409t-362 152t-362.5 -152.5t-135.5 -408.5z" />
<glyph unicode="R" horiz-adv-x="1204" d="M133 0v1290h488q238 0 359.5 -99.5t121.5 -272.5q0 -142 -84.5 -223.5t-212.5 -96.5q233 -44 252 -285q14 -162 24.5 -221.5t40.5 -91.5h-139q-38 53 -53 291q-14 254 -268 254h-402v-545h-127zM260 651h365q344 0 344 267q0 125 -85 194.5t-259 69.5h-365v-531z" />
<glyph unicode="S" horiz-adv-x="1124" d="M45 463l117 10q7 -188 122 -292.5t296 -104.5q161 0 253.5 67.5t92.5 186.5q0 98 -62 153.5t-202 83.5l-263 51q-311 63 -311 330q0 162 120.5 264.5t321.5 102.5q235 0 367.5 -122.5t132.5 -340.5l-119 -10q-3 177 -102.5 274.5t-276.5 97.5q-152 0 -235.5 -69.5 t-83.5 -192.5q0 -103 62 -150.5t200 -74.5l230 -45q176 -35 260 -114t84 -228q0 -168 -130.5 -266.5t-338.5 -98.5q-155 0 -275 56t-190 167.5t-70 264.5z" />
<glyph unicode="T" horiz-adv-x="1171" d="M41 1182v108h1089v-108h-483v-1182h-129v1182h-477z" />
<glyph unicode="U" horiz-adv-x="1236" d="M113 487v803h129v-821q0 -191 97.5 -288t278.5 -97q182 0 281.5 97t99.5 286v823h125v-803q0 -110 -26 -197.5t-71.5 -146t-110 -96.5t-138.5 -55t-160 -17t-160 17t-138.5 55t-109.5 96.5t-71 146t-26 197.5z" />
<glyph unicode="V" horiz-adv-x="1257" d="M31 1290h133l467 -1149h8l455 1149h133l-527 -1290h-143z" />
<glyph unicode="W" horiz-adv-x="1622" d="M31 1290h125l286 -1140h9l301 1140h122l308 -1147h8l280 1147h121l-327 -1290h-162l-285 1090h-8l-289 -1090h-162z" />
<glyph unicode="X" horiz-adv-x="1206" d="M31 0l499 666l-454 624h153l375 -524l377 524h145l-452 -614l502 -676h-154l-424 569l-420 -569h-147z" />
<glyph unicode="Y" horiz-adv-x="1196" d="M31 1290h141l434 -661l422 661h137l-506 -780v-510h-122v510z" />
<glyph unicode="Z" horiz-adv-x="1128" d="M61 0v86l820 1096h-809v108h972v-92l-817 -1089h840v-109h-1006z" />
<glyph unicode="[" horiz-adv-x="542" d="M133 -172v1524h307v-103h-184v-1319h184v-102h-307z" />
<glyph unicode="\" horiz-adv-x="620" d="M8 1350h121l533 -1520h-121z" />
<glyph unicode="]" horiz-adv-x="542" d="M102 -70h185v1319h-185v103h308v-1524h-308v102z" />
<glyph unicode="^" horiz-adv-x="753" d="M20 881l304 409h106l303 -409h-133l-223 305l-223 -305h-134z" />
<glyph unicode="_" horiz-adv-x="780" d="M41 -127h698v-100h-698v100z" />
<glyph unicode="`" horiz-adv-x="1024" d="M369 1290h174l110 -250h-86z" />
<glyph unicode="a" d="M82 221q0 61 25.5 108t77 79.5t114.5 54t152 39.5l237 49v45q0 102 -57.5 160.5t-161.5 58.5q-102 0 -165.5 -53.5t-88.5 -145.5l-106 21q27 124 122 200t236 76q166 0 253 -85.5t87 -249.5v-428q0 -34 19.5 -52t54.5 -18q41 0 80 22v-67q-23 -26 -49 -39.5t-68 -13.5 q-66 0 -109.5 52t-46.5 136q-37 -81 -128.5 -138t-201.5 -57q-126 0 -201 66t-75 180zM209 225q0 -67 44 -110t128 -43q132 0 219.5 92t87.5 239v56l-217 -47q-139 -30 -200.5 -67.5t-61.5 -119.5z" />
<glyph unicode="b" horiz-adv-x="1050" d="M123 0v1290h125v-598q32 92 118.5 156.5t208.5 64.5q128 0 223 -63t142 -168t47 -238t-47 -238t-142 -168t-223 -63q-122 0 -208.5 64t-118.5 156l-31 -195h-94zM244 414q0 -155 89.5 -245.5t225.5 -90.5q140 0 218.5 98t78.5 268t-78.5 268.5t-218.5 98.5 q-136 0 -225.5 -90.5t-89.5 -245.5v-61z" />
<glyph unicode="c" horiz-adv-x="989" d="M63 444q0 211 125 340t324 129q186 0 293.5 -109.5t120.5 -279.5l-115 -8q-9 132 -88 212.5t-215 80.5q-140 0 -226.5 -100.5t-86.5 -264.5t86.5 -264t226.5 -100q135 0 214.5 82.5t88.5 214.5l115 -12q-13 -170 -120.5 -280t-293.5 -110q-199 0 -324 129t-125 340z" />
<glyph unicode="d" horiz-adv-x="1050" d="M63 444q0 133 47 238t142 168t223 63q122 0 209 -64.5t119 -156.5v598h125v-1290h-125v195q-32 -92 -119 -156t-209 -64q-128 0 -223 63t-142 168t-47 238zM195 444q0 -170 78.5 -268t218.5 -98q136 0 225.5 90.5t89.5 245.5v61q0 155 -89.5 245.5t-225.5 90.5 q-140 0 -218.5 -98.5t-78.5 -268.5z" />
<glyph unicode="e" horiz-adv-x="987" d="M63 432q0 209 126.5 345t316.5 136q135 0 231.5 -61t141.5 -159t45 -222v-57h-731q6 -147 97 -241.5t224 -94.5q245 0 301 239l107 -14q-33 -154 -140 -241t-268 -87q-196 0 -323.5 127t-127.5 330zM195 502h596q-3 132 -77 222.5t-208 90.5q-127 0 -211 -91t-100 -222z " />
<glyph unicode="f" horiz-adv-x="559" d="M20 797v92h138v125q0 135 73 218t205 83q110 0 172 -48t94 -149l-92 -35q-18 63 -63 101.5t-111 38.5q-77 0 -115 -50t-38 -143v-141h256v-92h-256v-797h-125v797h-138z" />
<glyph unicode="g" horiz-adv-x="962" d="M20 -127q0 79 50.5 130.5t138.5 70.5q-115 35 -115 145q0 100 125 164q-110 80 -110 229q0 138 99.5 219.5t258.5 81.5q178 0 276 -98q36 56 93.5 88.5t126.5 32.5v-121q-109 0 -183 -43q47 -68 47 -160q0 -138 -100.5 -219.5t-259.5 -81.5q-116 0 -195 39 q-31 -15 -52 -42t-21 -60q0 -43 26.5 -63.5t89.5 -20.5h344q139 0 215 -65t76 -171q0 -64 -27 -115.5t-73.5 -85.5t-111 -57t-136 -33t-151.5 -10q-121 0 -216.5 26.5t-155 83.5t-59.5 136zM147 -96q0 -94 82 -140.5t222 -46.5q378 0 378 207q0 129 -198 129h-281 q-203 0 -203 -149zM238 610q0 -101 61 -158t168 -57q110 0 171.5 57t61.5 158q0 103 -61.5 160t-171.5 57q-108 0 -168.5 -57.5t-60.5 -159.5z" />
<glyph unicode="h" horiz-adv-x="985" d="M123 0v1290h125v-565q32 82 116 135t183 53q165 0 245 -97t80 -265v-551h-124v555q0 121 -61 190.5t-173 69.5q-109 0 -187.5 -79t-78.5 -204v-532h-125z" />
<glyph unicode="i" horiz-adv-x="370" d="M119 1124v166h133v-166h-133zM123 0v889h125v-889h-125z" />
<glyph unicode="j" horiz-adv-x="370" d="M-143 -307l39 82q71 -47 141 -47q86 0 86 102v1059h125v-1039q0 -106 -52 -164.5t-157 -58.5t-182 66zM119 1124v166h133v-166h-133z" />
<glyph unicode="k" horiz-adv-x="942" d="M123 0v1290h125v-831l489 430h164l-422 -369l443 -520h-152l-383 451l-139 -117v-334h-125z" />
<glyph unicode="l" horiz-adv-x="370" d="M123 0v1290h125v-1290h-125z" />
<glyph unicode="m" horiz-adv-x="1552" d="M123 0v889h125v-164q33 84 110 136t177 52q115 0 189.5 -52t104.5 -144q36 87 115.5 141.5t181.5 54.5q163 0 238.5 -98.5t75.5 -263.5v-551h-125v555q0 122 -55.5 191t-163.5 69q-103 0 -177.5 -79t-74.5 -204v-532h-125v555q0 122 -55.5 191t-163.5 69 q-103 0 -177.5 -79t-74.5 -204v-532h-125z" />
<glyph unicode="n" horiz-adv-x="985" d="M123 0v889h125v-164q32 82 116 135t183 53q165 0 245 -97t80 -265v-551h-124v555q0 121 -61 190.5t-173 69.5q-109 0 -187.5 -79t-78.5 -204v-532h-125z" />
<glyph unicode="o" horiz-adv-x="1017" d="M63 444q0 205 127 337t318 132q192 0 319 -132t127 -337t-127 -337t-319 -132q-191 0 -318 132t-127 337zM195 444q0 -166 83 -268t230 -102q148 0 231.5 102t83.5 268t-83.5 268.5t-231.5 102.5q-146 0 -229.5 -102.5t-83.5 -268.5z" />
<glyph unicode="p" horiz-adv-x="1050" d="M123 -348v1237h125v-197q32 92 118.5 156.5t208.5 64.5q128 0 223 -63t142 -168t47 -238t-47 -238t-142 -168t-223 -63q-122 0 -208.5 64t-118.5 156v-543h-125zM244 414q0 -155 89.5 -245.5t225.5 -90.5q140 0 218.5 98t78.5 268t-78.5 268.5t-218.5 98.5 q-136 0 -225.5 -90.5t-89.5 -245.5v-61z" />
<glyph unicode="q" horiz-adv-x="1050" d="M63 444q0 133 47 238t142 168t223 63q122 0 209 -64.5t119 -156.5v197h125v-1237h-125v543q-32 -92 -119 -156t-209 -64q-128 0 -223 63t-142 168t-47 238zM195 444q0 -170 78.5 -268t218.5 -98q136 0 225.5 90.5t89.5 245.5v61q0 155 -89.5 245.5t-225.5 90.5 q-140 0 -218.5 -98.5t-78.5 -268.5z" />
<glyph unicode="r" horiz-adv-x="641" d="M123 0v889h125v-187q29 86 97 148.5t159 62.5q80 0 127 -41l-15 -108q-66 35 -135 35q-97 0 -165 -89.5t-68 -222.5v-487h-125z" />
<glyph unicode="s" horiz-adv-x="870" d="M59 301l101 12q13 -115 89 -177t204 -62q106 0 169.5 39.5t63.5 115.5q0 69 -46 101t-148 51l-154 27q-252 44 -252 241q0 119 90.5 191.5t237.5 72.5q173 0 270 -81t107 -238l-97 -8q-17 119 -86 174t-194 55q-96 0 -153.5 -40.5t-57.5 -110.5q0 -64 39 -99t123 -49 l163 -27q140 -23 208.5 -78.5t68.5 -168.5q0 -126 -99 -196.5t-251 -70.5q-168 0 -277 83.5t-119 242.5z" />
<glyph unicode="t" horiz-adv-x="595" d="M16 797v61l54 10q58 11 79.5 41t36.5 101l27 127h63v-248h259v-92h-259v-602q0 -61 27 -90t88 -29q74 0 174 61v-88q-95 -74 -217 -74q-194 0 -194 222v600h-138z" />
<glyph unicode="u" horiz-adv-x="974" d="M113 338v551h125v-555q0 -122 58 -191t169 -69q109 0 185.5 78t76.5 204v533h125v-889h-125v164q-33 -83 -114.5 -136t-180.5 -53q-164 0 -241.5 97t-77.5 266z" />
<glyph unicode="v" horiz-adv-x="894" d="M20 889h132l299 -721h8l293 721h122l-376 -889h-101z" />
<glyph unicode="w" horiz-adv-x="1265" d="M20 889h125l224 -721h8l205 721h108l209 -721h8l219 721h119l-282 -889h-119l-207 709h-8l-205 -709h-119z" />
<glyph unicode="x" horiz-adv-x="925" d="M20 0l367 461l-340 428h152l262 -334l258 334h139l-330 -422l377 -467h-151l-299 377l-295 -377h-140z" />
<glyph unicode="y" horiz-adv-x="903" d="M20 889h132l305 -731h8l295 731h123l-512 -1237h-123l149 354z" />
<glyph unicode="z" horiz-adv-x="862" d="M63 0v86l562 702h-543v101h706v-86l-571 -703h586v-100h-740z" />
<glyph unicode="{" horiz-adv-x="571" d="M51 539v102h51q61 0 79 31t18 119v374q0 94 36.5 140.5t124.5 46.5h109v-103h-82q-33 0 -48 -18t-15 -57v-383q0 -85 -31 -136t-105 -65q74 -14 105 -65t31 -136v-383q0 -76 63 -76h82v-102h-109q-89 0 -125 46t-36 140v375q0 88 -18 119t-79 31h-51z" />
<glyph unicode="|" horiz-adv-x="380" d="M133 -170v1520h115v-1520h-115z" />
<glyph unicode="}" horiz-adv-x="571" d="M102 -70h82q64 0 64 76v383q0 85 30.5 136t104.5 65q-74 14 -104.5 65t-30.5 136v383q0 75 -64 75h-82v103h109q89 0 125.5 -46.5t36.5 -140.5v-374q0 -89 17.5 -119.5t78.5 -30.5h51v-102h-51q-61 0 -78.5 -30.5t-17.5 -119.5v-375q0 -94 -36.5 -140t-125.5 -46h-109 v102z" />
<glyph unicode="~" horiz-adv-x="796" d="M102 426q0 109 41.5 170t124.5 61q39 0 77.5 -20.5t65 -45t58.5 -45t59 -20.5q44 0 59.5 29.5t18.5 95.5h88q0 -109 -41.5 -170t-124.5 -61q-39 0 -77.5 20.5t-65 45t-58.5 45t-59 20.5q-44 0 -59.5 -29.5t-18.5 -95.5h-88z" />
<glyph unicode="&#xa1;" horiz-adv-x="368" d="M102 897v164h164v-164h-164zM117 139l45 611h45l45 -611v-368h-135v368z" />
<glyph unicode="&#xa2;" horiz-adv-x="1013" d="M63 444q0 192 115 319t291 146v203h100v-201q170 -13 268 -120t111 -267l-112 -8q-9 120 -79 199t-188 92v-725q119 12 188 88.5t83 206.5l108 -12q-13 -160 -111 -267.5t-268 -120.5v-180h-100v183q-177 18 -291.5 144.5t-114.5 319.5zM190 444q0 -148 75.5 -244.5 t203.5 -115.5v721q-128 -19 -203.5 -115.5t-75.5 -245.5z" />
<glyph unicode="&#xa3;" horiz-adv-x="1128" d="M27 164q0 85 59.5 139.5t155.5 54.5q69 0 145 -39v11q0 114 -65 270h-203v98h160q-46 116 -46 228q0 175 101.5 282t283.5 107q186 0 294 -109.5t108 -304.5l-119 -6q0 156 -73.5 235.5t-209.5 79.5q-135 0 -199.5 -78t-64.5 -206q0 -98 45 -228h340v-98h-303 q60 -166 60 -270q0 -33 -7 -80q10 -8 42 -33.5t45 -35t41.5 -29.5t47.5 -29t46.5 -20.5t54.5 -16t55 -4.5q164 0 164 254l111 -4q0 -163 -74.5 -260t-206.5 -97q-54 0 -103.5 13.5t-95 42t-75.5 52t-74 62.5q-63 -170 -234 -170q-89 0 -147.5 49.5t-58.5 139.5zM127 164 q0 -45 31 -73t78 -28q117 0 143 154q-77 53 -137 53q-54 0 -84.5 -27.5t-30.5 -78.5z" />
<glyph unicode="&#xa5;" horiz-adv-x="1134" d="M20 1290h142l413 -635l402 635h137l-420 -635h283v-98h-348v-158h348v-98h-348v-301h-123v301h-348v98h348v158h-348v98h282z" />
<glyph unicode="&#xa7;" horiz-adv-x="870" d="M39 633q0 70 43 130t111 93q-89 76 -89 199q0 110 92 185t236 75q152 0 254.5 -83.5t112.5 -236.5l-97 -8q-16 113 -93.5 171.5t-176.5 58.5q-96 0 -154.5 -40t-58.5 -120q0 -55 23 -88.5t88 -63.5l274 -127q112 -51 168.5 -118.5t56.5 -174.5q0 -72 -43 -132t-112 -93 q90 -74 90 -197q0 -110 -92 -185t-236 -75q-152 0 -254 83.5t-112 236.5l96 8q16 -113 93.5 -171t176.5 -58q96 0 154.5 39.5t58.5 119.5q0 55 -22.5 89t-87.5 63l-275 127q-112 51 -168.5 118.5t-56.5 174.5zM152 633q0 -68 42 -109.5t130 -83.5l249 -118q70 23 107 62 t37 101q0 68 -42 109.5t-130 83.5l-252 117q-141 -45 -141 -162z" />
<glyph unicode="&#xa8;" horiz-adv-x="1024" d="M317 1104v166h134v-166h-134zM571 1104v166h134v-166h-134z" />
<glyph unicode="&#xa9;" horiz-adv-x="1482" d="M72 645q0 190 90 344.5t243 240t336 85.5t336 -85.5t243.5 -240t90.5 -344.5t-90.5 -344.5t-243.5 -240t-336 -85.5t-336 85.5t-243 240t-90 344.5zM166 645q0 -164 77.5 -297t209 -206.5t288.5 -73.5t289 73.5t209.5 206.5t77.5 297q0 123 -45.5 231.5t-123.5 184 t-183.5 119t-223.5 43.5q-157 0 -288.5 -73.5t-209 -207t-77.5 -297.5zM358 643q0 178 110 292t273 114q164 0 259 -92t106 -246l-109 -6q-6 109 -72 175t-180 66q-118 0 -190 -81.5t-72 -221.5q0 -138 72 -219.5t190 -81.5q114 0 180 66.5t72 175.5l109 -9 q-11 -154 -106 -245.5t-259 -91.5q-163 0 -273 113.5t-110 291.5z" />
<glyph unicode="&#xaa;" horiz-adv-x="772" d="M63 784q0 91 70 138.5t207 74.5l182 37v33q0 71 -40 112.5t-113 41.5q-72 0 -117.5 -38.5t-61.5 -103.5l-106 17q21 98 96 158.5t189 60.5q130 0 200 -66t70 -194v-312q0 -53 53 -53q28 0 62 17v-66q-45 -41 -101 -41q-54 0 -89.5 38.5t-39.5 102.5q-29 -62 -96.5 -103.5 t-151.5 -41.5q-98 0 -155.5 50t-57.5 138zM184 793q0 -47 31 -78t90 -31q93 0 155 66t62 170v36l-155 -32q-97 -21 -140 -47.5t-43 -83.5z" />
<glyph unicode="&#xab;" horiz-adv-x="786" d="M102 397v90l285 267v-136l-190 -176l190 -176v-135zM399 397v90l285 267v-136l-190 -176l190 -176v-135z" />
<glyph unicode="&#xad;" horiz-adv-x="696" d="M123 465v113h450v-113h-450z" />
<glyph unicode="&#xae;" horiz-adv-x="819" d="M51 954q0 155 104.5 258t254.5 103t254 -103t104 -258t-104 -257.5t-254 -102.5t-254.5 102.5t-104.5 257.5zM117 954q0 -129 84.5 -214t208.5 -85t208 85t84 214t-84 214t-208 85t-208.5 -85t-84.5 -214zM262 772v375h170q69 0 105 -30.5t36 -84.5q0 -40 -24 -65.5 t-60 -28.5q66 -12 72 -78q2 -43 5.5 -60.5t13.5 -27.5h-78q-11 13 -17 78q0 61 -63 61h-86v-139h-74zM336 969h84q80 0 80 59t-80 59h-84v-118z" />
<glyph unicode="&#xaf;" horiz-adv-x="1024" d="M254 1069v105h514v-105h-514z" />
<glyph unicode="&#xb0;" horiz-adv-x="675" d="M61 1042q0 115 80 194t197 79t196.5 -78.5t79.5 -194.5q0 -115 -79.5 -193.5t-196.5 -78.5t-197 78.5t-80 193.5zM168 1042q0 -75 47.5 -125.5t122.5 -50.5t122.5 50.5t47.5 125.5t-47.5 126t-122.5 51t-122.5 -51t-47.5 -126z" />
<glyph unicode="&#xb1;" horiz-adv-x="1259" d="M102 94v107h1055v-107h-1055zM102 721v104h476v410h104v-410h475v-104h-475v-410h-104v410h-476z" />
<glyph unicode="&#xb2;" horiz-adv-x="671" d="M51 500v67l221 191q114 96 163.5 158t49.5 139q0 70 -38.5 110.5t-112.5 40.5q-78 0 -121 -46.5t-43 -131.5q0 -30 10 -72l-114 7q-9 56 -9 73q0 121 76.5 194t202.5 73q132 0 200 -68t68 -174q0 -51 -18.5 -99t-56 -93t-71 -77t-85.5 -75l-146 -119h404v-98h-580z" />
<glyph unicode="&#xb3;" horiz-adv-x="681" d="M51 766l113 -4q3 -91 53.5 -137.5t138.5 -46.5q77 0 122.5 36.5t45.5 102.5q0 64 -46.5 99.5t-121.5 35.5q-37 0 -73 -4v92q16 -2 73 -2q67 0 110.5 31.5t43.5 99.5q0 65 -41 103t-119 38q-80 0 -127 -51.5t-47 -142.5l-110 4q0 125 77.5 204t208.5 79q128 0 200.5 -61 t72.5 -163q0 -71 -45.5 -121.5t-106.5 -60.5q74 -11 121 -62t47 -126q0 -100 -77.5 -162t-207.5 -62q-141 0 -223 75.5t-82 205.5z" />
<glyph unicode="&#xb4;" horiz-adv-x="1024" d="M369 1040l110 250h174l-198 -250h-86z" />
<glyph unicode="&#xb6;" horiz-adv-x="983" d="M41 936q0 166 116 260t328 94h365v-1290h-113v1182h-141v-1182h-111v582q-212 0 -328 94t-116 260z" />
<glyph unicode="&#xb7;" horiz-adv-x="327" d="M82 440v164h164v-164h-164z" />
<glyph unicode="&#xb8;" horiz-adv-x="1024" d="M287 -279l35 62q86 -70 188 -70q49 0 78.5 16.5t29.5 49.5q0 41 -31 58t-71.5 12t-79.5 -23l-37 22l119 175h74l-90 -121q91 27 162 -2t71 -109q0 -53 -33 -87.5t-81 -48t-111 -13.5q-66 0 -126 23.5t-97 55.5z" />
<glyph unicode="&#xb9;" horiz-adv-x="380" d="M16 1098v73q81 0 122 28t63 93h78v-792h-115v598h-148z" />
<glyph unicode="&#xba;" horiz-adv-x="796" d="M51 954q0 158 98.5 259.5t247.5 101.5q150 0 249 -101t99 -260q0 -157 -99 -257.5t-249 -100.5q-149 0 -247.5 100.5t-98.5 257.5zM176 954q0 -119 58.5 -191.5t162.5 -72.5q105 0 164.5 72.5t59.5 191.5q0 120 -59.5 193.5t-164.5 73.5q-104 0 -162.5 -73.5 t-58.5 -193.5z" />
<glyph unicode="&#xbb;" horiz-adv-x="786" d="M102 131v135l191 176l-191 176v136l285 -267v-90zM399 131v135l191 176l-191 176v136l285 -267v-90z" />
<glyph unicode="&#xbc;" horiz-adv-x="1402" d="M61 1102v74q81 0 122 27.5t63 92.5h78v-792h-115v598h-148zM152 0l847 1290h117l-848 -1290h-116zM686 207v108l385 471h139v-485h131v-94h-131v-207h-112v207h-412zM784 301h314v383z" />
<glyph unicode="&#xbd;" horiz-adv-x="1476" d="M61 1102v74q81 0 122 27.5t63 92.5h78v-792h-115v598h-148zM152 0l847 1290h117l-848 -1290h-116zM836 0v68l221 190q114 96 163.5 158t49.5 139q0 70 -39 111t-113 41q-78 0 -121 -47t-43 -132q0 -25 11 -71l-115 6q-8 50 -8 74q0 121 76 193.5t202 72.5 q132 0 200.5 -68t68.5 -174q0 -51 -18.5 -99t-56.5 -93t-71.5 -76.5t-85.5 -75.5l-145 -119h403v-98h-579z" />
<glyph unicode="&#xbe;" horiz-adv-x="1634" d="M61 768l113 -4q3 -90 54 -137t139 -47q77 0 122.5 36.5t45.5 102.5q0 64 -46.5 99.5t-121.5 35.5q-38 0 -74 -4v92q16 -2 74 -2q67 0 110 31t43 100q0 65 -41 103t-119 38q-80 0 -127 -51.5t-47 -142.5l-110 4q0 125 77.5 204t208.5 79q128 0 200.5 -61t72.5 -163 q0 -71 -45.5 -121.5t-106.5 -60.5q74 -11 121 -62t47 -126q0 -101 -77 -162.5t-207 -61.5q-141 0 -223.5 75.5t-82.5 205.5zM383 0l848 1290h117l-848 -1290h-117zM918 207v108l385 471h139v-485h131v-94h-131v-207h-113v207h-411zM1016 301h313v383z" />
<glyph unicode="&#xbf;" d="M61 125q0 53 16 102.5t39 87t64.5 81.5t75.5 73t90 74q61 51 84 92t23 106h116q0 -92 -34.5 -155.5t-120.5 -132.5q-7 -6 -33 -27t-35 -28.5t-32 -28t-32.5 -32.5t-26.5 -32.5t-24.5 -38.5t-17 -41t-13 -48t-3.5 -52q0 -123 72.5 -199t209.5 -76q147 0 228 87t81 245 q0 61 -14 121l131 -8q13 -67 13 -121q0 -196 -119 -312t-320 -116q-108 0 -190 30.5t-131 83.5t-73 119.5t-24 145.5zM436 897v164h164v-164h-164z" />
<glyph unicode="&#xc0;" horiz-adv-x="1275" d="M31 0l530 1290h139l545 -1290h-137l-174 416h-610l-166 -416h-127zM369 524h520l-260 627h-8zM401 1638h174l111 -249h-86z" />
<glyph unicode="&#xc1;" horiz-adv-x="1275" d="M31 0l530 1290h139l545 -1290h-137l-174 416h-610l-166 -416h-127zM369 524h520l-260 627h-8zM578 1389l110 249h174l-198 -249h-86z" />
<glyph unicode="&#xc2;" horiz-adv-x="1275" d="M31 0l530 1290h139l545 -1290h-137l-174 416h-610l-166 -416h-127zM369 524h520l-260 627h-8zM377 1389l162 249h163l162 -249h-100l-143 163l-144 -163h-100z" />
<glyph unicode="&#xc3;" horiz-adv-x="1275" d="M31 0l530 1290h139l545 -1290h-137l-174 416h-610l-166 -416h-127zM344 1386q0 109 41.5 170.5t124.5 61.5q39 0 77.5 -20.5t65 -45t58.5 -45t59 -20.5q44 0 59.5 29.5t18.5 95.5h88q0 -109 -41.5 -170.5t-124.5 -61.5q-39 0 -77.5 20.5t-65 45t-58.5 45t-59 20.5 q-44 0 -59.5 -29.5t-18.5 -95.5h-88zM369 524h520l-260 627h-8z" />
<glyph unicode="&#xc4;" horiz-adv-x="1275" d="M31 0l530 1290h139l545 -1290h-137l-174 416h-610l-166 -416h-127zM369 524h520l-260 627h-8zM428 1401v166h133v-166h-133zM682 1401v166h133v-166h-133z" />
<glyph unicode="&#xc5;" horiz-adv-x="1275" d="M31 0l530 1290h139l545 -1290h-137l-174 416h-610l-166 -416h-127zM369 524h520l-260 627h-8zM446 1516q0 71 49 119t126 48t125.5 -47.5t48.5 -119.5t-48.5 -120t-125.5 -48t-126 48t-49 120zM526 1516q0 -42 25 -68.5t70 -26.5t69.5 26.5t24.5 68.5t-24.5 68t-69.5 26 t-70 -26t-25 -68z" />
<glyph unicode="&#xc6;" horiz-adv-x="1994" d="M31 0l917 1290h946v-108h-749v-459h600v-109h-600v-505h768v-109h-893v416h-555l-295 -416h-139zM541 524h479v662h-8z" />
<glyph unicode="&#xc7;" horiz-adv-x="1361" d="M72 645q0 195 83 348.5t225.5 237.5t317.5 84q265 0 419.5 -150t172.5 -405l-125 -6q-9 201 -133.5 326.5t-333.5 125.5q-216 0 -353.5 -152.5t-137.5 -408.5t137.5 -408.5t353.5 -152.5q209 0 333.5 125.5t133.5 327.5l125 -7q-18 -239 -154.5 -386t-373.5 -164l-57 -78 q91 27 162 -2t71 -109q0 -53 -33 -87.5t-81 -48t-111 -13.5q-66 0 -126.5 23.5t-97.5 55.5l35 62q36 -29 86.5 -49.5t102.5 -20.5q49 0 78.5 16.5t29.5 49.5q0 41 -31 58t-71.5 12t-79.5 -23l-37 22l86 127q-173 3 -313 87t-221.5 236.5t-81.5 346.5z" />
<glyph unicode="&#xc8;" horiz-adv-x="1107" d="M133 0v1290h875v-108h-750v-459h600v-109h-600v-505h768v-109h-893zM360 1638h175l110 -249h-86z" />
<glyph unicode="&#xc9;" horiz-adv-x="1107" d="M133 0v1290h875v-108h-750v-459h600v-109h-600v-505h768v-109h-893zM537 1389l110 249h174l-198 -249h-86z" />
<glyph unicode="&#xca;" horiz-adv-x="1107" d="M133 0v1290h875v-108h-750v-459h600v-109h-600v-505h768v-109h-893zM336 1389l162 249h164l161 -249h-100l-143 163l-144 -163h-100z" />
<glyph unicode="&#xcb;" horiz-adv-x="1107" d="M133 0v1290h875v-108h-750v-459h600v-109h-600v-505h768v-109h-893zM387 1401v166h133v-166h-133zM641 1401v166h133v-166h-133z" />
<glyph unicode="&#xcc;" horiz-adv-x="395" d="M-23 1638h175l110 -249h-86zM133 0v1290h129v-1290h-129z" />
<glyph unicode="&#xcd;" horiz-adv-x="395" d="M133 0v1290h129v-1290h-129zM154 1389l110 249h174l-198 -249h-86z" />
<glyph unicode="&#xce;" horiz-adv-x="395" d="M-47 1389l162 249h164l161 -249h-100l-143 163l-144 -163h-100zM133 0v1290h129v-1290h-129z" />
<glyph unicode="&#xcf;" horiz-adv-x="395" d="M4 1401v166h133v-166h-133zM133 0v1290h129v-1290h-129zM258 1401v166h133v-166h-133z" />
<glyph unicode="&#xd0;" horiz-adv-x="1347" d="M12 614v109h158v567h455q301 0 476 -172t175 -473t-175 -473t-476 -172h-455v614h-158zM299 109h319q253 0 388 141t135 395t-135 395.5t-388 141.5h-319v-459h371v-109h-371v-505z" />
<glyph unicode="&#xd1;" horiz-adv-x="1294" d="M133 0v1290h143l762 -1063v1063h123v-1290h-102l-803 1112v-1112h-123zM369 1386q0 109 41.5 170.5t124.5 61.5q39 0 77.5 -20.5t65 -45t58.5 -45t59 -20.5q44 0 59 29.5t18 95.5h89q0 -109 -41.5 -170.5t-124.5 -61.5q-39 0 -77.5 20.5t-65 45t-58.5 45t-59 20.5 q-44 0 -59.5 -29.5t-18.5 -95.5h-88z" />
<glyph unicode="&#xd2;" horiz-adv-x="1409" d="M72 645q0 298 175.5 484t457.5 186t457 -186t175 -484t-175 -484t-457 -186t-457.5 186t-175.5 484zM207 645q0 -256 135.5 -408.5t362.5 -152.5t362 152t135 409t-135 409t-362 152t-362.5 -152.5t-135.5 -408.5zM485 1638h174l111 -249h-86z" />
<glyph unicode="&#xd3;" horiz-adv-x="1409" d="M72 645q0 298 175.5 484t457.5 186t457 -186t175 -484t-175 -484t-457 -186t-457.5 186t-175.5 484zM207 645q0 -256 135.5 -408.5t362.5 -152.5t362 152t135 409t-135 409t-362 152t-362.5 -152.5t-135.5 -408.5zM662 1389l110 249h174l-198 -249h-86z" />
<glyph unicode="&#xd4;" horiz-adv-x="1409" d="M72 645q0 298 175.5 484t457.5 186t457 -186t175 -484t-175 -484t-457 -186t-457.5 186t-175.5 484zM207 645q0 -256 135.5 -408.5t362.5 -152.5t362 152t135 409t-135 409t-362 152t-362.5 -152.5t-135.5 -408.5zM461 1389l162 249h163l162 -249h-100l-143 163 l-144 -163h-100z" />
<glyph unicode="&#xd5;" horiz-adv-x="1409" d="M72 645q0 298 175.5 484t457.5 186t457 -186t175 -484t-175 -484t-457 -186t-457.5 186t-175.5 484zM207 645q0 -256 135.5 -408.5t362.5 -152.5t362 152t135 409t-135 409t-362 152t-362.5 -152.5t-135.5 -408.5zM410 1386q0 109 41.5 170.5t123.5 61.5q39 0 78 -20.5 t65 -45t58.5 -45t59.5 -20.5q44 0 59 29.5t18 95.5h88q0 -109 -41.5 -170.5t-123.5 -61.5q-39 0 -78 20.5t-65 45t-58.5 45t-59.5 20.5q-44 0 -59 -29.5t-18 -95.5h-88z" />
<glyph unicode="&#xd6;" horiz-adv-x="1409" d="M72 645q0 298 175.5 484t457.5 186t457 -186t175 -484t-175 -484t-457 -186t-457.5 186t-175.5 484zM207 645q0 -256 135.5 -408.5t362.5 -152.5t362 152t135 409t-135 409t-362 152t-362.5 -152.5t-135.5 -408.5zM512 1401v166h133v-166h-133zM766 1401v166h133v-166 h-133z" />
<glyph unicode="&#xd7;" horiz-adv-x="1081" d="M125 289l342 342l-342 342l76 76l338 -347l338 347l75 -76l-342 -342l342 -342l-75 -76l-338 346l-338 -346z" />
<glyph unicode="&#xd8;" horiz-adv-x="1409" d="M72 645q0 298 175.5 484t457.5 186q224 0 385 -121l112 139l80 -63l-117 -146q172 -185 172 -479q0 -298 -175 -484t-457 -186q-220 0 -379 115l-125 -156l-80 64l129 160q-178 184 -178 487zM207 645q0 -244 121 -393l688 850q-125 104 -311 104q-227 0 -362.5 -152.5 t-135.5 -408.5zM399 180q129 -96 306 -96q227 0 362 152t135 409q0 234 -115 383z" />
<glyph unicode="&#xd9;" horiz-adv-x="1236" d="M113 487v803h129v-821q0 -191 97.5 -288t278.5 -97q182 0 281.5 97t99.5 286v823h125v-803q0 -110 -26 -197.5t-71.5 -146t-110 -96.5t-138.5 -55t-160 -17t-160 17t-138.5 55t-109.5 96.5t-71 146t-26 197.5zM399 1638h174l111 -249h-86z" />
<glyph unicode="&#xda;" horiz-adv-x="1236" d="M113 487v803h129v-821q0 -191 97.5 -288t278.5 -97q182 0 281.5 97t99.5 286v823h125v-803q0 -110 -26 -197.5t-71.5 -146t-110 -96.5t-138.5 -55t-160 -17t-160 17t-138.5 55t-109.5 96.5t-71 146t-26 197.5zM575 1389l111 249h174l-198 -249h-87z" />
<glyph unicode="&#xdb;" horiz-adv-x="1236" d="M113 487v803h129v-821q0 -191 97.5 -288t278.5 -97q182 0 281.5 97t99.5 286v823h125v-803q0 -110 -26 -197.5t-71.5 -146t-110 -96.5t-138.5 -55t-160 -17t-160 17t-138.5 55t-109.5 96.5t-71 146t-26 197.5zM375 1389l162 249h163l162 -249h-100l-144 163l-143 -163 h-100z" />
<glyph unicode="&#xdc;" horiz-adv-x="1236" d="M113 487v803h129v-821q0 -191 97.5 -288t278.5 -97q182 0 281.5 97t99.5 286v823h125v-803q0 -110 -26 -197.5t-71.5 -146t-110 -96.5t-138.5 -55t-160 -17t-160 17t-138.5 55t-109.5 96.5t-71 146t-26 197.5zM426 1401v166h133v-166h-133zM680 1401v166h133v-166h-133z " />
<glyph unicode="&#xdd;" horiz-adv-x="1196" d="M31 1290h141l434 -661l422 661h137l-506 -780v-510h-122v510zM555 1389l111 249h174l-199 -249h-86z" />
<glyph unicode="&#xde;" horiz-adv-x="1097" d="M133 0v1290h127v-229h293q235 0 364.5 -104.5t129.5 -288.5t-129.5 -289t-364.5 -105h-293v-274h-127zM260 383h293q181 0 274 73.5t93 211.5t-93 211t-274 73h-293v-569z" />
<glyph unicode="&#xdf;" horiz-adv-x="964" d="M123 0v932q0 169 94.5 276t263.5 107q160 0 251 -84t91 -230q0 -116 -63.5 -188.5t-153.5 -87.5q137 -18 217 -113t80 -231q0 -94 -31.5 -169.5t-84.5 -122.5t-120.5 -72t-142.5 -25q-57 0 -131 24v99q73 -25 121 -25q117 0 191.5 74t74.5 217q0 131 -83.5 209.5 t-221.5 77.5q-47 0 -82 -2v104q27 -4 82 -4q112 0 169.5 60.5t57.5 172.5q0 98 -57 159t-164 61q-114 0 -173.5 -77t-59.5 -220v-922h-125z" />
<glyph unicode="&#xe0;" d="M82 221q0 61 25.5 108t77 79.5t114.5 54t152 39.5l237 49v45q0 102 -57.5 160.5t-161.5 58.5q-102 0 -165.5 -53.5t-88.5 -145.5l-106 21q27 124 122 200t236 76q166 0 253 -85.5t87 -249.5v-428q0 -34 19.5 -52t54.5 -18q41 0 80 22v-67q-23 -26 -49 -39.5t-68 -13.5 q-66 0 -109.5 52t-46.5 136q-37 -81 -128.5 -138t-201.5 -57q-126 0 -201 66t-75 180zM209 225q0 -67 44 -110t128 -43q132 0 219.5 92t87.5 239v56l-217 -47q-139 -30 -200.5 -67.5t-61.5 -119.5zM256 1290h174l111 -250h-86z" />
<glyph unicode="&#xe1;" d="M82 221q0 61 25.5 108t77 79.5t114.5 54t152 39.5l237 49v45q0 102 -57.5 160.5t-161.5 58.5q-102 0 -165.5 -53.5t-88.5 -145.5l-106 21q27 124 122 200t236 76q166 0 253 -85.5t87 -249.5v-428q0 -34 19.5 -52t54.5 -18q41 0 80 22v-67q-23 -26 -49 -39.5t-68 -13.5 q-66 0 -109.5 52t-46.5 136q-37 -81 -128.5 -138t-201.5 -57q-126 0 -201 66t-75 180zM209 225q0 -67 44 -110t128 -43q132 0 219.5 92t87.5 239v56l-217 -47q-139 -30 -200.5 -67.5t-61.5 -119.5zM440 1040l111 250h174l-199 -250h-86z" />
<glyph unicode="&#xe2;" d="M82 221q0 61 25.5 108t77 79.5t114.5 54t152 39.5l237 49v45q0 102 -57.5 160.5t-161.5 58.5q-102 0 -165.5 -53.5t-88.5 -145.5l-106 21q27 124 122 200t236 76q166 0 253 -85.5t87 -249.5v-428q0 -34 19.5 -52t54.5 -18q41 0 80 22v-67q-23 -26 -49 -39.5t-68 -13.5 q-66 0 -109.5 52t-46.5 136q-37 -81 -128.5 -138t-201.5 -57q-126 0 -201 66t-75 180zM209 225q0 -67 44 -110t128 -43q132 0 219.5 92t87.5 239v56l-217 -47q-139 -30 -200.5 -67.5t-61.5 -119.5zM236 1040l161 250h164l162 -250h-100l-144 164l-143 -164h-100z" />
<glyph unicode="&#xe3;" d="M82 221q0 61 25.5 108t77 79.5t114.5 54t152 39.5l237 49v45q0 102 -57.5 160.5t-161.5 58.5q-102 0 -165.5 -53.5t-88.5 -145.5l-106 21q27 124 122 200t236 76q166 0 253 -85.5t87 -249.5v-428q0 -34 19.5 -52t54.5 -18q41 0 80 22v-67q-23 -26 -49 -39.5t-68 -13.5 q-66 0 -109.5 52t-46.5 136q-37 -81 -128.5 -138t-201.5 -57q-126 0 -201 66t-75 180zM190 1047q0 109 41.5 170t124.5 61q39 0 77.5 -20.5t65 -45t58.5 -45t59 -20.5q44 0 59.5 29.5t18.5 95.5h88q0 -109 -41.5 -170.5t-124.5 -61.5q-39 0 -77.5 20.5t-65 45t-58.5 45 t-59 20.5q-44 0 -59 -29t-18 -95h-89zM209 225q0 -67 44 -110t128 -43q132 0 219.5 92t87.5 239v56l-217 -47q-139 -30 -200.5 -67.5t-61.5 -119.5z" />
<glyph unicode="&#xe4;" d="M82 221q0 61 25.5 108t77 79.5t114.5 54t152 39.5l237 49v45q0 102 -57.5 160.5t-161.5 58.5q-102 0 -165.5 -53.5t-88.5 -145.5l-106 21q27 124 122 200t236 76q166 0 253 -85.5t87 -249.5v-428q0 -34 19.5 -52t54.5 -18q41 0 80 22v-67q-23 -26 -49 -39.5t-68 -13.5 q-66 0 -109.5 52t-46.5 136q-37 -81 -128.5 -138t-201.5 -57q-126 0 -201 66t-75 180zM209 225q0 -67 44 -110t128 -43q132 0 219.5 92t87.5 239v56l-217 -47q-139 -30 -200.5 -67.5t-61.5 -119.5zM287 1104v166h133v-166h-133zM541 1104v166h133v-166h-133z" />
<glyph unicode="&#xe5;" d="M82 221q0 61 25.5 108t77 79.5t114.5 54t152 39.5l237 49v45q0 102 -57.5 160.5t-161.5 58.5q-102 0 -165.5 -53.5t-88.5 -145.5l-106 21q27 124 122 200t236 76q166 0 253 -85.5t87 -249.5v-428q0 -34 19.5 -52t54.5 -18q41 0 80 22v-67q-23 -26 -49 -39.5t-68 -13.5 q-66 0 -109.5 52t-46.5 136q-37 -81 -128.5 -138t-201.5 -57q-126 0 -201 66t-75 180zM209 225q0 -67 44 -110t128 -43q132 0 219.5 92t87.5 239v56l-217 -47q-139 -30 -200.5 -67.5t-61.5 -119.5zM305 1167q0 72 48.5 120t125.5 48t125.5 -48t48.5 -120t-48.5 -120 t-125.5 -48t-125.5 48t-48.5 120zM385 1167q0 -42 24.5 -68t69.5 -26t69.5 26t24.5 68t-24.5 68.5t-69.5 26.5t-69.5 -26.5t-24.5 -68.5z" />
<glyph unicode="&#xe6;" horiz-adv-x="1585" d="M82 221q0 134 108.5 207.5t354.5 73.5h147v78q0 113 -59.5 174t-163.5 61q-102 0 -165.5 -53.5t-88.5 -145.5l-106 21q27 124 122 200t236 76q234 0 301 -172q60 80 146.5 126t189.5 46q135 0 231.5 -61t141.5 -159t45 -222v-57h-731q6 -155 98 -245.5t223 -90.5 q245 0 301 239l107 -14q-33 -154 -140 -241t-268 -87q-128 0 -223 57t-152 161q-40 -89 -137 -153.5t-219 -64.5q-141 0 -220 65t-79 181zM209 225q0 -67 44 -110t128 -43q129 0 220 80.5t91 224.5v37h-145q-129 0 -205.5 -23.5t-104.5 -63t-28 -102.5zM795 502h594 q-3 132 -77 222.5t-208 90.5q-121 0 -206.5 -87t-102.5 -226z" />
<glyph unicode="&#xe7;" horiz-adv-x="989" d="M63 444q0 211 125 340t324 129q186 0 293.5 -109.5t120.5 -279.5l-115 -8q-9 132 -88 212.5t-215 80.5q-140 0 -226.5 -100.5t-86.5 -264.5t86.5 -264t226.5 -100q135 0 214.5 82.5t88.5 214.5l115 -12q-13 -163 -112 -271t-271 -117l-56 -75q91 27 162.5 -2t71.5 -109 q0 -53 -33 -87.5t-81 -48t-111 -13.5q-66 0 -126.5 23.5t-97.5 55.5l35 62q36 -29 86.5 -49.5t102.5 -20.5q49 0 78.5 16.5t29.5 49.5q0 41 -31 58t-71.5 12t-79.5 -23l-37 22l86 129q-183 12 -295.5 139.5t-112.5 327.5z" />
<glyph unicode="&#xe8;" horiz-adv-x="987" d="M63 432q0 209 126.5 345t316.5 136q135 0 231.5 -61t141.5 -159t45 -222v-57h-731q6 -147 97 -241.5t224 -94.5q245 0 301 239l107 -14q-33 -154 -140 -241t-268 -87q-196 0 -323.5 127t-127.5 330zM195 502h596q-3 132 -77 222.5t-208 90.5q-127 0 -211 -91t-100 -222z M287 1290h174l110 -250h-86z" />
<glyph unicode="&#xe9;" horiz-adv-x="987" d="M63 432q0 209 126.5 345t316.5 136q135 0 231.5 -61t141.5 -159t45 -222v-57h-731q6 -147 97 -241.5t224 -94.5q245 0 301 239l107 -14q-33 -154 -140 -241t-268 -87q-196 0 -323.5 127t-127.5 330zM195 502h596q-3 132 -77 222.5t-208 90.5q-127 0 -211 -91t-100 -222z M455 1040l110 250h174l-198 -250h-86z" />
<glyph unicode="&#xea;" horiz-adv-x="987" d="M63 432q0 209 126.5 345t316.5 136q135 0 231.5 -61t141.5 -159t45 -222v-57h-731q6 -147 97 -241.5t224 -94.5q245 0 301 239l107 -14q-33 -154 -140 -241t-268 -87q-196 0 -323.5 127t-127.5 330zM195 502h596q-3 132 -77 222.5t-208 90.5q-127 0 -211 -91t-100 -222z M262 1040l162 250h164l162 -250h-101l-143 164l-144 -164h-100z" />
<glyph unicode="&#xeb;" horiz-adv-x="987" d="M63 432q0 209 126.5 345t316.5 136q135 0 231.5 -61t141.5 -159t45 -222v-57h-731q6 -147 97 -241.5t224 -94.5q245 0 301 239l107 -14q-33 -154 -140 -241t-268 -87q-196 0 -323.5 127t-127.5 330zM195 502h596q-3 132 -77 222.5t-208 90.5q-127 0 -211 -91t-100 -222z M313 1104v166h133v-166h-133zM567 1104v166h133v-166h-133z" />
<glyph unicode="&#xec;" horiz-adv-x="370" d="M-39 1290h174l111 -250h-86zM123 0v889h125v-889h-125z" />
<glyph unicode="&#xed;" horiz-adv-x="370" d="M123 0v889h125v-889h-125zM145 1040l111 250h174l-199 -250h-86z" />
<glyph unicode="&#xee;" horiz-adv-x="370" d="M-59 1040l161 250h164l162 -250h-100l-144 164l-143 -164h-100zM123 0v889h125v-889h-125z" />
<glyph unicode="&#xef;" horiz-adv-x="370" d="M-8 1104v166h133v-166h-133zM123 0v889h125v-889h-125zM246 1104v166h133v-166h-133z" />
<glyph unicode="&#xf0;" horiz-adv-x="1009" d="M61 434q0 203 127 332t320 129q92 0 171 -46t132 -130q-62 179 -244 346l-250 -98l-41 77l216 84q-85 62 -173 113l62 76q111 -61 221 -146l156 62l43 -76l-127 -51q274 -259 274 -641q0 -233 -121.5 -361.5t-318.5 -128.5q-192 0 -319.5 128.5t-127.5 330.5zM193 434 q0 -163 83.5 -261.5t231.5 -98.5t231.5 98.5t83.5 261.5q0 164 -83.5 263.5t-231.5 99.5t-231.5 -99.5t-83.5 -263.5z" />
<glyph unicode="&#xf1;" horiz-adv-x="985" d="M123 0v889h125v-164q32 82 116 135t183 53q165 0 245 -97t80 -265v-551h-124v555q0 121 -61 190.5t-173 69.5q-109 0 -187.5 -79t-78.5 -204v-532h-125zM213 1047q0 109 41.5 170t124.5 61q39 0 77.5 -20.5t65 -45t58.5 -45t59 -20.5q44 0 59.5 29.5t18.5 95.5h88 q0 -109 -41.5 -170.5t-124.5 -61.5q-39 0 -77.5 20.5t-65 45t-58.5 45t-59 20.5q-44 0 -59.5 -29.5t-18.5 -94.5h-88z" />
<glyph unicode="&#xf2;" horiz-adv-x="1017" d="M63 444q0 205 127 337t318 132q192 0 319 -132t127 -337t-127 -337t-319 -132q-191 0 -318 132t-127 337zM195 444q0 -166 83 -268t230 -102q148 0 231.5 102t83.5 268t-83.5 268.5t-231.5 102.5q-146 0 -229.5 -102.5t-83.5 -268.5zM285 1290h174l110 -250h-86z" />
<glyph unicode="&#xf3;" horiz-adv-x="1017" d="M63 444q0 205 127 337t318 132q192 0 319 -132t127 -337t-127 -337t-319 -132q-191 0 -318 132t-127 337zM195 444q0 -166 83 -268t230 -102q148 0 231.5 102t83.5 268t-83.5 268.5t-231.5 102.5q-146 0 -229.5 -102.5t-83.5 -268.5zM469 1040l111 250h174l-199 -250h-86 z" />
<glyph unicode="&#xf4;" horiz-adv-x="1017" d="M63 444q0 205 127 337t318 132q192 0 319 -132t127 -337t-127 -337t-319 -132q-191 0 -318 132t-127 337zM195 444q0 -166 83 -268t230 -102q148 0 231.5 102t83.5 268t-83.5 268.5t-231.5 102.5q-146 0 -229.5 -102.5t-83.5 -268.5zM264 1040l162 250h164l162 -250h-101 l-143 164l-143 -164h-101z" />
<glyph unicode="&#xf5;" horiz-adv-x="1017" d="M63 444q0 205 127 337t318 132q192 0 319 -132t127 -337t-127 -337t-319 -132q-191 0 -318 132t-127 337zM195 444q0 -166 83 -268t230 -102q148 0 231.5 102t83.5 268t-83.5 268.5t-231.5 102.5q-146 0 -229.5 -102.5t-83.5 -268.5zM223 1047q0 109 41.5 170t124.5 61 q39 0 77.5 -20.5t65 -45t58.5 -45t59 -20.5q44 0 59.5 29.5t18.5 95.5h88q0 -109 -41.5 -170.5t-124.5 -61.5q-39 0 -77.5 20.5t-65 45t-58.5 45t-59 20.5q-44 0 -59.5 -29.5t-18.5 -94.5h-88z" />
<glyph unicode="&#xf6;" horiz-adv-x="1017" d="M63 444q0 205 127 337t318 132q192 0 319 -132t127 -337t-127 -337t-319 -132q-191 0 -318 132t-127 337zM195 444q0 -166 83 -268t230 -102q148 0 231.5 102t83.5 268t-83.5 268.5t-231.5 102.5q-146 0 -229.5 -102.5t-83.5 -268.5zM315 1104v166h134v-166h-134z M569 1104v166h133v-166h-133z" />
<glyph unicode="&#xf7;" horiz-adv-x="1269" d="M117 586v106h1036v-106h-1036zM551 129v172h172v-172h-172zM551 977v172h172v-172h-172z" />
<glyph unicode="&#xf8;" horiz-adv-x="1017" d="M63 444q0 205 127 337t318 132q152 0 268 -86l109 127l69 -57l-112 -133q112 -128 112 -320q0 -205 -127 -337t-319 -132q-149 0 -266 84l-107 -125l-69 58l110 129q-113 129 -113 323zM195 444q0 -136 57 -233l455 534q-79 70 -199 70q-146 0 -229.5 -102.5 t-83.5 -268.5zM311 141q76 -67 197 -67q148 0 231.5 102t83.5 268q0 138 -57 232z" />
<glyph unicode="&#xf9;" horiz-adv-x="974" d="M113 338v551h125v-555q0 -122 58 -191t169 -69q109 0 185.5 78t76.5 204v533h125v-889h-125v164q-33 -83 -114.5 -136t-180.5 -53q-164 0 -241.5 97t-77.5 266zM266 1290h174l111 -250h-86z" />
<glyph unicode="&#xfa;" horiz-adv-x="974" d="M113 338v551h125v-555q0 -122 58 -191t169 -69q109 0 185.5 78t76.5 204v533h125v-889h-125v164q-33 -83 -114.5 -136t-180.5 -53q-164 0 -241.5 97t-77.5 266zM451 1040l110 250h174l-198 -250h-86z" />
<glyph unicode="&#xfb;" horiz-adv-x="974" d="M113 338v551h125v-555q0 -122 58 -191t169 -69q109 0 185.5 78t76.5 204v533h125v-889h-125v164q-33 -83 -114.5 -136t-180.5 -53q-164 0 -241.5 97t-77.5 266zM246 1040l162 250h163l162 -250h-100l-144 164l-143 -164h-100z" />
<glyph unicode="&#xfc;" horiz-adv-x="974" d="M113 338v551h125v-555q0 -122 58 -191t169 -69q109 0 185.5 78t76.5 204v533h125v-889h-125v164q-33 -83 -114.5 -136t-180.5 -53q-164 0 -241.5 97t-77.5 266zM297 1104v166h133v-166h-133zM551 1104v166h133v-166h-133z" />
<glyph unicode="&#xfd;" horiz-adv-x="903" d="M20 889h132l305 -731h8l295 731h123l-512 -1237h-123l149 354zM412 1040l110 250h174l-198 -250h-86z" />
<glyph unicode="&#xfe;" horiz-adv-x="1050" d="M123 -348v1638h125v-598q32 92 118.5 156.5t208.5 64.5q128 0 223 -63t142 -168t47 -238t-47 -238t-142 -168t-223 -63q-122 0 -208.5 64t-118.5 156v-543h-125zM244 414q0 -155 89.5 -245.5t225.5 -90.5q140 0 218.5 98t78.5 268t-78.5 268.5t-218.5 98.5 q-136 0 -225.5 -90.5t-89.5 -245.5v-61z" />
<glyph unicode="&#xff;" horiz-adv-x="903" d="M20 889h132l305 -731h8l295 731h123l-512 -1237h-123l149 354zM258 1104v166h133v-166h-133zM512 1104v166h133v-166h-133z" />
<glyph unicode="&#x152;" horiz-adv-x="1941" d="M72 645q0 301 175 473t476 172h1118v-108h-749v-459h600v-109h-600v-505h768v-109h-1137q-301 0 -476 172t-175 473zM207 645q0 -254 134.5 -395t387.5 -141h238v1073h-238q-253 0 -387.5 -141t-134.5 -396z" />
<glyph unicode="&#x153;" horiz-adv-x="1732" d="M63 444q0 205 127 337t318 132q121 0 219 -57.5t156 -157.5q58 101 153 158t215 57q135 0 231.5 -61t141.5 -159t45 -222v-57h-731q6 -147 97.5 -241.5t224.5 -94.5q245 0 301 239l106 -14q-33 -154 -139.5 -241t-267.5 -87q-126 0 -224.5 55t-156.5 154 q-60 -99 -155 -154t-216 -55q-191 0 -318 132t-127 337zM195 444q0 -166 83 -268t230 -102q148 0 231.5 102t83.5 268t-83.5 268.5t-231.5 102.5q-146 0 -229.5 -102.5t-83.5 -268.5zM940 502h596q-3 132 -77 222.5t-208 90.5q-127 0 -211 -91t-100 -222z" />
<glyph unicode="&#x178;" horiz-adv-x="1196" d="M31 1290h141l434 -661l422 661h137l-506 -780v-510h-122v510zM406 1401v166h133v-166h-133zM659 1401v166h134v-166h-134z" />
<glyph unicode="&#x2c6;" horiz-adv-x="1024" d="M268 1040l162 250h164l162 -250h-101l-143 164l-143 -164h-101z" />
<glyph unicode="&#x2dc;" horiz-adv-x="1024" d="M215 1047q0 109 41.5 170t124.5 61q39 0 77.5 -20.5t65 -45t58.5 -45t59 -20.5q44 0 59.5 29.5t18.5 95.5h88q0 -109 -41.5 -170.5t-124.5 -61.5q-39 0 -77.5 20.5t-65 45t-58.5 45t-59 20.5q-44 0 -59.5 -29.5t-18.5 -94.5h-88z" />
<glyph unicode="&#x2000;" horiz-adv-x="841" />
<glyph unicode="&#x2001;" horiz-adv-x="1683" />
<glyph unicode="&#x2002;" horiz-adv-x="841" />
<glyph unicode="&#x2003;" horiz-adv-x="1683" />
<glyph unicode="&#x2004;" horiz-adv-x="561" />
<glyph unicode="&#x2005;" horiz-adv-x="420" />
<glyph unicode="&#x2006;" horiz-adv-x="280" />
<glyph unicode="&#x2007;" horiz-adv-x="280" />
<glyph unicode="&#x2008;" horiz-adv-x="210" />
<glyph unicode="&#x2009;" horiz-adv-x="336" />
<glyph unicode="&#x200a;" horiz-adv-x="93" />
<glyph unicode="&#x2010;" horiz-adv-x="696" d="M123 465v113h450v-113h-450z" />
<glyph unicode="&#x2011;" horiz-adv-x="696" d="M123 465v113h450v-113h-450z" />
<glyph unicode="&#x2012;" horiz-adv-x="696" d="M123 465v113h450v-113h-450z" />
<glyph unicode="&#x2013;" horiz-adv-x="1024" d="M123 473v98h778v-98h-778z" />
<glyph unicode="&#x2014;" horiz-adv-x="2048" d="M123 473v98h1802v-98h-1802z" />
<glyph unicode="&#x2018;" horiz-adv-x="327" d="M82 942v166q0 54 5 87t21.5 63t50 43.5t87.5 13.5v-84q-52 -4 -66 -28.5t-14 -96.5h80v-164h-164z" />
<glyph unicode="&#x2019;" horiz-adv-x="327" d="M82 918v83q52 4 66 28.5t14 96.5h-80v164h164v-166q0 -54 -5 -87t-21.5 -62.5t-50 -43t-87.5 -13.5z" />
<glyph unicode="&#x201a;" horiz-adv-x="327" d="M82 0v164h164v-166q0 -54 -5 -87t-21.5 -63t-50 -43.5t-87.5 -13.5v84q52 4 66 28.5t14 96.5h-80z" />
<glyph unicode="&#x201c;" horiz-adv-x="593" d="M82 942v166q0 54 5 87t21.5 63t50 43.5t87.5 13.5v-84q-52 -4 -66 -28.5t-14 -96.5h80v-164h-164zM348 942v166q0 54 5 87t21.5 63t50 43.5t87.5 13.5v-84q-52 -4 -66 -28.5t-14 -96.5h80v-164h-164z" />
<glyph unicode="&#x201d;" horiz-adv-x="593" d="M82 918v83q52 4 66 28.5t14 96.5h-80v164h164v-166q0 -54 -5 -87t-21.5 -62.5t-50 -43t-87.5 -13.5zM348 918v83q52 4 66 28.5t14 96.5h-80v164h164v-166q0 -54 -5 -87t-21.5 -62.5t-50 -43t-87.5 -13.5z" />
<glyph unicode="&#x201e;" horiz-adv-x="593" d="M82 0v164h164v-166q0 -54 -5 -87t-21.5 -63t-50 -43.5t-87.5 -13.5v84q52 4 66 28.5t14 96.5h-80zM348 0v164h164v-166q0 -54 -5 -87t-21.5 -63t-50 -43.5t-87.5 -13.5v84q52 4 66 28.5t14 96.5h-80z" />
<glyph unicode="&#x2022;" horiz-adv-x="645" d="M102 522q0 95 63.5 158t156.5 63t157 -63t64 -158q0 -94 -64 -156.5t-157 -62.5t-156.5 62.5t-63.5 156.5z" />
<glyph unicode="&#x2026;" horiz-adv-x="983" d="M82 0v164h164v-164h-164zM410 0v164h163v-164h-163zM737 0v164h164v-164h-164z" />
<glyph unicode="&#x202f;" horiz-adv-x="336" />
<glyph unicode="&#x2039;" horiz-adv-x="489" d="M102 397v90l285 267v-136l-190 -176l190 -176v-135z" />
<glyph unicode="&#x203a;" horiz-adv-x="489" d="M102 131v135l191 176l-191 176v136l285 -267v-90z" />
<glyph unicode="&#x205f;" horiz-adv-x="420" />
<glyph unicode="&#x20ac;" horiz-adv-x="1239" d="M31 467v96h129q-2 27 -2 82q0 51 2 76h-129v96h139q39 229 172.5 363.5t331.5 134.5q219 0 348 -147.5t145 -387.5l-125 -6q-6 94 -31.5 171.5t-69.5 136.5t-112.5 91.5t-154.5 32.5q-153 0 -248 -103t-125 -286h426l-20 -96h-416q-2 -25 -2 -76q0 -55 2 -82h393l-20 -96 h-361q30 -182 124 -282.5t247 -100.5q171 0 261.5 114.5t106.5 317.5l125 -6q-19 -244 -146.5 -389.5t-346.5 -145.5q-197 0 -330 132.5t-172 359.5h-141z" />
<glyph unicode="&#x2122;" horiz-adv-x="1263" d="M41 1208v82h477v-82h-192v-450h-97v450h-188zM588 758v532h153l127 -411h4l127 411h148v-532h-94v446h-4l-142 -446h-82l-143 446h-4v-446h-90z" />
<glyph unicode="&#x25fc;" horiz-adv-x="890" d="M0 0v891h891v-891h-891z" />
</font>
</defs>
</svg>
